<mxfile host="app.diagrams.net" modified="2022-09-12T06:37:46.770Z" agent="5.0 (Macintosh; Intel Mac OS X 10_15_6) AppleWebKit/605.1.15 (KHTML, like Gecko) Version/14.0.2 Safari/605.1.15" etag="VoltCIRZA-GmgFnvkvdj" version="20.3.0" type="github">
  <diagram id="bBhWRNSEg77YoxhUYpXi" name="第 1 页">
    <mxGraphModel dx="627" dy="453" grid="1" gridSize="10" guides="1" tooltips="1" connect="1" arrows="1" fold="1" page="1" pageScale="1" pageWidth="827" pageHeight="1169" math="0" shadow="0">
      <root>
        <mxCell id="0" />
        <mxCell id="1" parent="0" />
        <mxCell id="05NC3V1e43gHkcWItsWe-11" style="edgeStyle=orthogonalEdgeStyle;rounded=0;orthogonalLoop=1;jettySize=auto;html=1;exitX=1;exitY=0.5;exitDx=0;exitDy=0;entryX=0;entryY=0.5;entryDx=0;entryDy=0;" edge="1" parent="1" source="05NC3V1e43gHkcWItsWe-1" target="05NC3V1e43gHkcWItsWe-9">
          <mxGeometry relative="1" as="geometry" />
        </mxCell>
        <mxCell id="05NC3V1e43gHkcWItsWe-1" value="安全防护" style="rounded=1;whiteSpace=wrap;html=1;fillColor=#ffe6cc;strokeColor=#d79b00;" vertex="1" parent="1">
          <mxGeometry x="30" y="210" width="110" height="50" as="geometry" />
        </mxCell>
        <mxCell id="05NC3V1e43gHkcWItsWe-27" style="edgeStyle=orthogonalEdgeStyle;rounded=0;orthogonalLoop=1;jettySize=auto;html=1;exitX=1;exitY=0.5;exitDx=0;exitDy=0;" edge="1" parent="1" source="05NC3V1e43gHkcWItsWe-2" target="05NC3V1e43gHkcWItsWe-21">
          <mxGeometry relative="1" as="geometry" />
        </mxCell>
        <mxCell id="05NC3V1e43gHkcWItsWe-2" value="&lt;p style=&quot;margin: 0px; font-stretch: normal; font-size: 13px; line-height: normal; font-family: &amp;quot;PingFang SC&amp;quot;;&quot;&gt;调试检测&lt;/p&gt;" style="rounded=1;whiteSpace=wrap;html=1;fillColor=#dae8fc;strokeColor=#6c8ebf;" vertex="1" parent="1">
          <mxGeometry x="330" y="30" width="120" height="50" as="geometry" />
        </mxCell>
        <mxCell id="05NC3V1e43gHkcWItsWe-28" style="edgeStyle=orthogonalEdgeStyle;rounded=0;orthogonalLoop=1;jettySize=auto;html=1;exitX=1;exitY=0.5;exitDx=0;exitDy=0;entryX=0;entryY=0.5;entryDx=0;entryDy=0;" edge="1" parent="1" source="05NC3V1e43gHkcWItsWe-3" target="05NC3V1e43gHkcWItsWe-22">
          <mxGeometry relative="1" as="geometry" />
        </mxCell>
        <mxCell id="05NC3V1e43gHkcWItsWe-3" value="禁止调试" style="rounded=1;whiteSpace=wrap;html=1;fillColor=#d5e8d4;strokeColor=#82b366;" vertex="1" parent="1">
          <mxGeometry x="330" y="90" width="120" height="50" as="geometry" />
        </mxCell>
        <mxCell id="05NC3V1e43gHkcWItsWe-30" style="edgeStyle=orthogonalEdgeStyle;rounded=0;orthogonalLoop=1;jettySize=auto;html=1;exitX=1;exitY=0.5;exitDx=0;exitDy=0;entryX=0;entryY=0.5;entryDx=0;entryDy=0;" edge="1" parent="1" source="05NC3V1e43gHkcWItsWe-4" target="05NC3V1e43gHkcWItsWe-23">
          <mxGeometry relative="1" as="geometry" />
        </mxCell>
        <mxCell id="05NC3V1e43gHkcWItsWe-4" value="&lt;p style=&quot;margin: 0px; font-stretch: normal; font-size: 13px; line-height: normal; font-family: &amp;quot;PingFang SC&amp;quot;;&quot;&gt;网络代理&lt;/p&gt;" style="rounded=1;whiteSpace=wrap;html=1;fillColor=#e3c800;fontColor=#000000;strokeColor=#B09500;" vertex="1" parent="1">
          <mxGeometry x="330" y="150" width="120" height="50" as="geometry" />
        </mxCell>
        <mxCell id="05NC3V1e43gHkcWItsWe-20" style="edgeStyle=orthogonalEdgeStyle;rounded=0;orthogonalLoop=1;jettySize=auto;html=1;exitX=1;exitY=0.5;exitDx=0;exitDy=0;" edge="1" parent="1" source="05NC3V1e43gHkcWItsWe-5" target="05NC3V1e43gHkcWItsWe-10">
          <mxGeometry relative="1" as="geometry" />
        </mxCell>
        <mxCell id="05NC3V1e43gHkcWItsWe-5" value="&lt;p style=&quot;margin: 0px; font-stretch: normal; font-size: 13px; line-height: normal; font-family: &amp;quot;PingFang SC&amp;quot;;&quot;&gt;越狱检测&lt;/p&gt;" style="rounded=1;whiteSpace=wrap;html=1;fillColor=#b1ddf0;strokeColor=#10739e;" vertex="1" parent="1">
          <mxGeometry x="330" y="210" width="120" height="50" as="geometry" />
        </mxCell>
        <mxCell id="05NC3V1e43gHkcWItsWe-31" style="edgeStyle=orthogonalEdgeStyle;rounded=0;orthogonalLoop=1;jettySize=auto;html=1;exitX=1;exitY=0.5;exitDx=0;exitDy=0;" edge="1" parent="1" source="05NC3V1e43gHkcWItsWe-6" target="05NC3V1e43gHkcWItsWe-24">
          <mxGeometry relative="1" as="geometry" />
        </mxCell>
        <mxCell id="05NC3V1e43gHkcWItsWe-6" value="&lt;p style=&quot;margin: 0px; font-stretch: normal; font-size: 13px; line-height: normal; font-family: &amp;quot;Helvetica Neue&amp;quot;;&quot;&gt;hook&lt;span style=&quot;font-stretch: normal; line-height: normal; font-family: &amp;quot;PingFang SC&amp;quot;;&quot;&gt;注入检测&lt;/span&gt;&lt;/p&gt;" style="rounded=1;whiteSpace=wrap;html=1;fillColor=#bac8d3;strokeColor=#23445d;" vertex="1" parent="1">
          <mxGeometry x="330" y="270" width="120" height="50" as="geometry" />
        </mxCell>
        <mxCell id="05NC3V1e43gHkcWItsWe-32" style="edgeStyle=orthogonalEdgeStyle;rounded=0;orthogonalLoop=1;jettySize=auto;html=1;exitX=1;exitY=0.5;exitDx=0;exitDy=0;entryX=0;entryY=0.5;entryDx=0;entryDy=0;" edge="1" parent="1" source="05NC3V1e43gHkcWItsWe-7" target="05NC3V1e43gHkcWItsWe-25">
          <mxGeometry relative="1" as="geometry" />
        </mxCell>
        <mxCell id="05NC3V1e43gHkcWItsWe-7" value="&lt;p style=&quot;margin: 0px; font-stretch: normal; font-size: 13px; line-height: normal; font-family: &amp;quot;PingFang SC&amp;quot;;&quot;&gt;重签名&lt;/p&gt;" style="rounded=1;whiteSpace=wrap;html=1;fillColor=#fad9d5;strokeColor=#ae4132;" vertex="1" parent="1">
          <mxGeometry x="330" y="330" width="120" height="50" as="geometry" />
        </mxCell>
        <mxCell id="05NC3V1e43gHkcWItsWe-33" style="edgeStyle=orthogonalEdgeStyle;rounded=0;orthogonalLoop=1;jettySize=auto;html=1;exitX=1;exitY=0.5;exitDx=0;exitDy=0;entryX=0;entryY=0.5;entryDx=0;entryDy=0;" edge="1" parent="1" source="05NC3V1e43gHkcWItsWe-8" target="05NC3V1e43gHkcWItsWe-26">
          <mxGeometry relative="1" as="geometry" />
        </mxCell>
        <mxCell id="05NC3V1e43gHkcWItsWe-8" value="&lt;p style=&quot;margin: 0px; font-stretch: normal; font-size: 13px; line-height: normal; font-family: &amp;quot;PingFang SC&amp;quot;;&quot;&gt;模拟器检查&lt;/p&gt;" style="rounded=1;whiteSpace=wrap;html=1;fillColor=#bac8d3;strokeColor=#23445d;" vertex="1" parent="1">
          <mxGeometry x="330" y="390" width="120" height="50" as="geometry" />
        </mxCell>
        <mxCell id="05NC3V1e43gHkcWItsWe-13" style="edgeStyle=orthogonalEdgeStyle;rounded=0;orthogonalLoop=1;jettySize=auto;html=1;exitX=1;exitY=0.5;exitDx=0;exitDy=0;entryX=0;entryY=0.5;entryDx=0;entryDy=0;" edge="1" parent="1" source="05NC3V1e43gHkcWItsWe-9" target="05NC3V1e43gHkcWItsWe-5">
          <mxGeometry relative="1" as="geometry" />
        </mxCell>
        <mxCell id="05NC3V1e43gHkcWItsWe-14" style="edgeStyle=orthogonalEdgeStyle;rounded=0;orthogonalLoop=1;jettySize=auto;html=1;exitX=1;exitY=0.5;exitDx=0;exitDy=0;entryX=0;entryY=0.5;entryDx=0;entryDy=0;" edge="1" parent="1" source="05NC3V1e43gHkcWItsWe-9" target="05NC3V1e43gHkcWItsWe-2">
          <mxGeometry relative="1" as="geometry">
            <mxPoint x="290" y="90" as="targetPoint" />
          </mxGeometry>
        </mxCell>
        <mxCell id="05NC3V1e43gHkcWItsWe-15" style="edgeStyle=orthogonalEdgeStyle;rounded=0;orthogonalLoop=1;jettySize=auto;html=1;exitX=1;exitY=0.5;exitDx=0;exitDy=0;entryX=0;entryY=0.5;entryDx=0;entryDy=0;" edge="1" parent="1" source="05NC3V1e43gHkcWItsWe-9" target="05NC3V1e43gHkcWItsWe-3">
          <mxGeometry relative="1" as="geometry" />
        </mxCell>
        <mxCell id="05NC3V1e43gHkcWItsWe-16" style="edgeStyle=orthogonalEdgeStyle;rounded=0;orthogonalLoop=1;jettySize=auto;html=1;exitX=1;exitY=0.5;exitDx=0;exitDy=0;entryX=0;entryY=0.5;entryDx=0;entryDy=0;" edge="1" parent="1" source="05NC3V1e43gHkcWItsWe-9" target="05NC3V1e43gHkcWItsWe-4">
          <mxGeometry relative="1" as="geometry" />
        </mxCell>
        <mxCell id="05NC3V1e43gHkcWItsWe-17" style="edgeStyle=orthogonalEdgeStyle;rounded=0;orthogonalLoop=1;jettySize=auto;html=1;exitX=1;exitY=0.5;exitDx=0;exitDy=0;entryX=0;entryY=0.5;entryDx=0;entryDy=0;" edge="1" parent="1" source="05NC3V1e43gHkcWItsWe-9" target="05NC3V1e43gHkcWItsWe-8">
          <mxGeometry relative="1" as="geometry">
            <Array as="points">
              <mxPoint x="310" y="235" />
              <mxPoint x="310" y="415" />
            </Array>
          </mxGeometry>
        </mxCell>
        <mxCell id="05NC3V1e43gHkcWItsWe-18" style="edgeStyle=orthogonalEdgeStyle;rounded=0;orthogonalLoop=1;jettySize=auto;html=1;exitX=1;exitY=0.5;exitDx=0;exitDy=0;entryX=0;entryY=0.5;entryDx=0;entryDy=0;" edge="1" parent="1" source="05NC3V1e43gHkcWItsWe-9" target="05NC3V1e43gHkcWItsWe-6">
          <mxGeometry relative="1" as="geometry" />
        </mxCell>
        <mxCell id="05NC3V1e43gHkcWItsWe-19" style="edgeStyle=orthogonalEdgeStyle;rounded=0;orthogonalLoop=1;jettySize=auto;html=1;exitX=1;exitY=0.5;exitDx=0;exitDy=0;entryX=0;entryY=0.5;entryDx=0;entryDy=0;" edge="1" parent="1" source="05NC3V1e43gHkcWItsWe-9" target="05NC3V1e43gHkcWItsWe-7">
          <mxGeometry relative="1" as="geometry" />
        </mxCell>
        <mxCell id="05NC3V1e43gHkcWItsWe-9" value="ABT控制" style="rounded=1;whiteSpace=wrap;html=1;fillColor=#ffe6cc;strokeColor=#d79b00;" vertex="1" parent="1">
          <mxGeometry x="170" y="210" width="120" height="50" as="geometry" />
        </mxCell>
        <mxCell id="05NC3V1e43gHkcWItsWe-40" style="edgeStyle=orthogonalEdgeStyle;rounded=0;orthogonalLoop=1;jettySize=auto;html=1;exitX=1;exitY=0.5;exitDx=0;exitDy=0;entryX=0;entryY=0.5;entryDx=0;entryDy=0;" edge="1" parent="1" source="05NC3V1e43gHkcWItsWe-10" target="05NC3V1e43gHkcWItsWe-34">
          <mxGeometry relative="1" as="geometry" />
        </mxCell>
        <mxCell id="05NC3V1e43gHkcWItsWe-10" value="&lt;p style=&quot;margin: 0px; font-stretch: normal; font-size: 13px; line-height: normal; font-family: &amp;quot;PingFang SC&amp;quot;;&quot;&gt;多种方法判断越狱特征标识&lt;/p&gt;" style="rounded=1;whiteSpace=wrap;html=1;fillColor=#f5f5f5;gradientColor=#b3b3b3;strokeColor=#666666;" vertex="1" parent="1">
          <mxGeometry x="480" y="210" width="150" height="50" as="geometry" />
        </mxCell>
        <mxCell id="05NC3V1e43gHkcWItsWe-35" style="edgeStyle=orthogonalEdgeStyle;rounded=0;orthogonalLoop=1;jettySize=auto;html=1;exitX=1;exitY=0.5;exitDx=0;exitDy=0;entryX=0;entryY=0.5;entryDx=0;entryDy=0;" edge="1" parent="1" source="05NC3V1e43gHkcWItsWe-21" target="05NC3V1e43gHkcWItsWe-34">
          <mxGeometry relative="1" as="geometry" />
        </mxCell>
        <mxCell id="05NC3V1e43gHkcWItsWe-21" value="&lt;p style=&quot;margin: 0px; font-stretch: normal; font-size: 13px; line-height: normal; font-family: &amp;quot;Helvetica Neue&amp;quot;;&quot;&gt;&lt;span style=&quot;font-stretch: normal; line-height: normal; font-family: &amp;quot;PingFang SC&amp;quot;;&quot;&gt;取&lt;/span&gt;p_flag &lt;span style=&quot;font-stretch: normal; line-height: normal; font-family: &amp;quot;PingFang SC&amp;quot;;&quot;&gt;与&lt;/span&gt; P_TRACED&lt;span style=&quot;font-stretch: normal; line-height: normal; font-family: &amp;quot;PingFang SC&amp;quot;;&quot;&gt;判断是否被调试&lt;/span&gt;&lt;/p&gt;" style="rounded=1;whiteSpace=wrap;html=1;fillColor=#fff2cc;gradientColor=#ffd966;strokeColor=#d6b656;" vertex="1" parent="1">
          <mxGeometry x="480" y="30" width="150" height="50" as="geometry" />
        </mxCell>
        <mxCell id="05NC3V1e43gHkcWItsWe-44" style="edgeStyle=orthogonalEdgeStyle;rounded=0;orthogonalLoop=1;jettySize=auto;html=1;exitX=1;exitY=0.5;exitDx=0;exitDy=0;entryX=0;entryY=0.5;entryDx=0;entryDy=0;" edge="1" parent="1" source="05NC3V1e43gHkcWItsWe-22" target="05NC3V1e43gHkcWItsWe-34">
          <mxGeometry relative="1" as="geometry" />
        </mxCell>
        <mxCell id="05NC3V1e43gHkcWItsWe-22" value="&lt;p style=&quot;margin: 0px; font-stretch: normal; font-size: 13px; line-height: normal; font-family: &amp;quot;Helvetica Neue&amp;quot;;&quot;&gt;&lt;span style=&quot;font-stretch: normal; line-height: normal; font-family: &amp;quot;PingFang SC&amp;quot;;&quot;&gt;汇编执行&lt;/span&gt;ptrace&lt;span style=&quot;font-stretch: normal; line-height: normal; font-family: &amp;quot;PingFang SC&amp;quot;;&quot;&gt;指令&lt;/span&gt;&lt;/p&gt;" style="rounded=1;whiteSpace=wrap;html=1;fillColor=#d5e8d4;gradientColor=#97d077;strokeColor=#82b366;" vertex="1" parent="1">
          <mxGeometry x="480" y="90" width="150" height="50" as="geometry" />
        </mxCell>
        <mxCell id="05NC3V1e43gHkcWItsWe-45" style="edgeStyle=orthogonalEdgeStyle;rounded=0;orthogonalLoop=1;jettySize=auto;html=1;exitX=1;exitY=0.5;exitDx=0;exitDy=0;entryX=0;entryY=0.5;entryDx=0;entryDy=0;" edge="1" parent="1" source="05NC3V1e43gHkcWItsWe-23" target="05NC3V1e43gHkcWItsWe-34">
          <mxGeometry relative="1" as="geometry" />
        </mxCell>
        <mxCell id="05NC3V1e43gHkcWItsWe-23" value="&lt;p style=&quot;margin: 0px; font-stretch: normal; font-size: 13px; line-height: normal; font-family: &amp;quot;Helvetica Neue&amp;quot;;&quot;&gt;&lt;span style=&quot;font-stretch: normal; line-height: normal; font-family: &amp;quot;PingFang SC&amp;quot;;&quot;&gt;设置&lt;/span&gt;Configuration&lt;/p&gt;" style="rounded=1;whiteSpace=wrap;html=1;fillColor=#dae8fc;gradientColor=#7ea6e0;strokeColor=#6c8ebf;" vertex="1" parent="1">
          <mxGeometry x="480" y="150" width="150" height="50" as="geometry" />
        </mxCell>
        <mxCell id="05NC3V1e43gHkcWItsWe-41" style="edgeStyle=orthogonalEdgeStyle;rounded=0;orthogonalLoop=1;jettySize=auto;html=1;exitX=1;exitY=0.5;exitDx=0;exitDy=0;entryX=0;entryY=0.5;entryDx=0;entryDy=0;" edge="1" parent="1" source="05NC3V1e43gHkcWItsWe-24" target="05NC3V1e43gHkcWItsWe-34">
          <mxGeometry relative="1" as="geometry" />
        </mxCell>
        <mxCell id="05NC3V1e43gHkcWItsWe-24" value="&lt;p style=&quot;margin: 0px; font-stretch: normal; font-size: 13px; line-height: normal; font-family: &amp;quot;Helvetica Neue&amp;quot;;&quot;&gt;&lt;span style=&quot;font-stretch: normal; line-height: normal; font-family: &amp;quot;PingFang SC&amp;quot;;&quot;&gt;白名单判断加载进入的库和路径&lt;/span&gt;&lt;/p&gt;" style="rounded=1;whiteSpace=wrap;html=1;fillColor=#b1ddf0;strokeColor=#10739e;" vertex="1" parent="1">
          <mxGeometry x="480" y="270" width="150" height="50" as="geometry" />
        </mxCell>
        <mxCell id="05NC3V1e43gHkcWItsWe-46" style="edgeStyle=orthogonalEdgeStyle;rounded=0;orthogonalLoop=1;jettySize=auto;html=1;exitX=1;exitY=0.5;exitDx=0;exitDy=0;entryX=0;entryY=0.5;entryDx=0;entryDy=0;" edge="1" parent="1" source="05NC3V1e43gHkcWItsWe-25" target="05NC3V1e43gHkcWItsWe-34">
          <mxGeometry relative="1" as="geometry" />
        </mxCell>
        <mxCell id="05NC3V1e43gHkcWItsWe-25" value="&lt;p style=&quot;margin: 0px; font-stretch: normal; font-size: 13px; line-height: normal; font-family: &amp;quot;Helvetica Neue&amp;quot;;&quot;&gt;&lt;span style=&quot;font-stretch: normal; line-height: normal; font-family: &amp;quot;PingFang SC&amp;quot;;&quot;&gt;判断&lt;/span&gt;bundle id&lt;/p&gt;" style="rounded=1;whiteSpace=wrap;html=1;fillColor=#b0e3e6;strokeColor=#0e8088;" vertex="1" parent="1">
          <mxGeometry x="480" y="330" width="150" height="50" as="geometry" />
        </mxCell>
        <mxCell id="05NC3V1e43gHkcWItsWe-48" style="edgeStyle=orthogonalEdgeStyle;rounded=0;orthogonalLoop=1;jettySize=auto;html=1;exitX=1;exitY=0.5;exitDx=0;exitDy=0;entryX=0;entryY=0.5;entryDx=0;entryDy=0;" edge="1" parent="1" source="05NC3V1e43gHkcWItsWe-26" target="05NC3V1e43gHkcWItsWe-34">
          <mxGeometry relative="1" as="geometry" />
        </mxCell>
        <mxCell id="05NC3V1e43gHkcWItsWe-26" value="&lt;p style=&quot;margin: 0px; font-stretch: normal; font-size: 13px; line-height: normal; font-family: &amp;quot;Helvetica Neue&amp;quot;;&quot;&gt;TARGET_IPHONE_SIMULATOR &amp;amp;&amp;amp; TARGET_OS_IPHONE&lt;/p&gt;" style="rounded=1;whiteSpace=wrap;html=1;fillColor=#ffcccc;strokeColor=#36393d;" vertex="1" parent="1">
          <mxGeometry x="480" y="390" width="150" height="50" as="geometry" />
        </mxCell>
        <mxCell id="05NC3V1e43gHkcWItsWe-34" value="&lt;p style=&quot;margin: 0px; font-stretch: normal; font-size: 13px; line-height: normal; font-family: &amp;quot;PingFang SC&amp;quot;;&quot;&gt;上报埋点&lt;/p&gt;" style="rounded=1;whiteSpace=wrap;html=1;fillColor=#ffe6cc;strokeColor=#d79b00;" vertex="1" parent="1">
          <mxGeometry x="690" y="210" width="100" height="50" as="geometry" />
        </mxCell>
      </root>
    </mxGraphModel>
  </diagram>
</mxfile>
